<?xml version="1.0" encoding="utf-8"?>
<!-- Generator: Adobe Illustrator 15.0.2, SVG Export Plug-In . SVG Version: 6.00 Build 0)  -->
<!DOCTYPE svg PUBLIC "-//W3C//DTD SVG 1.1//EN" "http://www.w3.org/Graphics/SVG/1.1/DTD/svg11.dtd">
<svg version="1.1" id="Calque_1" xmlns="http://www.w3.org/2000/svg" xmlns:xlink="http://www.w3.org/1999/xlink" x="0px" y="0px"
	 width="36px" height="432px" viewBox="0 0 36 432" enable-background="new 0 0 36 432" xml:space="preserve">
<g>
	<g>
		<path fill="#00BCD4" d="M18.001,11.411c-0.52,0-0.941-0.421-0.941-0.941V2.942c0-0.52,0.422-0.941,0.941-0.941
			s0.941,0.421,0.941,0.941v7.528C18.942,10.99,18.521,11.411,18.001,11.411z"/>
	</g>
	<g>
		<path fill="#00BCD4" stroke="#3F51B5" stroke-width="1.8823" stroke-linecap="round" stroke-miterlimit="10" d="M18.001,10.469"/>
	</g>
	<g>
		<path fill="#00BCD4" stroke="#3F51B5" stroke-width="1.8823" stroke-linecap="round" stroke-miterlimit="10" d="M18.001,25.529"/>
	</g>
	<g opacity="0.45">
		<path fill="#00BCD4" d="M18.001,34c-0.52,0-0.941-0.421-0.941-0.941V25.53c0-0.52,0.422-0.941,0.941-0.941
			s0.941,0.421,0.941,0.941v7.529C18.942,33.578,18.521,34,18.001,34z"/>
	</g>
	<g opacity="0.18">
		<path fill="#00BCD4" d="M33.06,18.941H25.53c-0.52,0-0.941-0.421-0.941-0.941s0.422-0.941,0.941-0.941h7.529
			c0.52,0,0.94,0.421,0.94,0.941S33.579,18.941,33.06,18.941z"/>
	</g>
	<g>
		<path fill="#00BCD4" stroke="#3F51B5" stroke-width="1.8823" stroke-linecap="round" stroke-miterlimit="10" d="M25.53,18"/>
	</g>
	<g>
		<path fill="#00BCD4" stroke="#3F51B5" stroke-width="1.8823" stroke-linecap="round" stroke-miterlimit="10" d="M10.472,18"/>
	</g>
	<g opacity="0.72">
		<path fill="#00BCD4" d="M10.472,18.941H2.943c-0.521,0-0.941-0.421-0.941-0.941s0.421-0.941,0.941-0.941h7.528
			c0.52,0,0.94,0.421,0.94,0.941S10.991,18.941,10.472,18.941z"/>
	</g>
	<g opacity="0.09">
		<path fill="#00BCD4" d="M24.521,15.177c-0.325,0-0.643-0.169-0.816-0.471c-0.259-0.45-0.105-1.026,0.346-1.286l6.522-3.766
			c0.446-0.26,1.024-0.106,1.286,0.345c0.259,0.45,0.104,1.025-0.346,1.286l-6.523,3.766C24.843,15.136,24.681,15.177,24.521,15.177
			z"/>
	</g>
	<g>
		<path fill="#00BCD4" stroke="#3F51B5" stroke-width="1.8823" stroke-linecap="round" stroke-miterlimit="10" d="M24.519,14.236"/>
	</g>
	<g>
		<path fill="#00BCD4" stroke="#3F51B5" stroke-width="1.8823" stroke-linecap="round" stroke-miterlimit="10" d="M11.481,21.763"/>
	</g>
	<g opacity="0.63">
		<path fill="#00BCD4" d="M4.962,26.47c-0.326,0-0.643-0.168-0.816-0.471c-0.26-0.45-0.105-1.025,0.345-1.286l6.522-3.766
			c0.449-0.26,1.025-0.105,1.285,0.345s0.105,1.026-0.345,1.286l-6.522,3.766C5.282,26.429,5.119,26.47,4.962,26.47z"/>
	</g>
	<g opacity="0">
		<path fill="#00BCD4" d="M21.763,12.422c-0.16,0-0.32-0.04-0.47-0.126c-0.45-0.26-0.604-0.835-0.345-1.286l3.766-6.522
			C24.976,4.038,25.55,3.883,26,4.143c0.451,0.26,0.604,0.835,0.345,1.286l-3.766,6.522C22.405,12.254,22.089,12.422,21.763,12.422z
			"/>
	</g>
	<g>
		<path fill="#00BCD4" stroke="#3F51B5" stroke-width="1.8823" stroke-linecap="round" stroke-miterlimit="10" d="M21.765,11.481"/>
	</g>
	<g>
		<path fill="#00BCD4" stroke="#3F51B5" stroke-width="1.8823" stroke-linecap="round" stroke-miterlimit="10" d="M14.238,24.518"/>
	</g>
	<g opacity="0.54">
		<path fill="#00BCD4" d="M10.472,31.982c-0.16,0-0.321-0.04-0.471-0.126c-0.449-0.26-0.604-0.835-0.345-1.286l3.767-6.522
			c0.26-0.45,0.834-0.604,1.285-0.345c0.45,0.26,0.604,0.836,0.346,1.286l-3.767,6.522C11.112,31.814,10.796,31.982,10.472,31.982z"
			/>
	</g>
	<g opacity="0.36">
		<path fill="#00BCD4" d="M25.531,31.982c-0.326,0-0.642-0.168-0.815-0.471l-3.767-6.522c-0.259-0.451-0.104-1.026,0.345-1.286
			c0.451-0.26,1.025-0.105,1.286,0.345l3.767,6.522c0.26,0.451,0.105,1.026-0.346,1.286C25.853,31.942,25.691,31.982,25.531,31.982z
			"/>
	</g>
	<g>
		<path fill="#00BCD4" stroke="#3F51B5" stroke-width="1.8823" stroke-linecap="round" stroke-miterlimit="10" d="M21.765,24.519"/>
	</g>
	<g>
		<path fill="#00BCD4" stroke="#3F51B5" stroke-width="1.8823" stroke-linecap="round" stroke-miterlimit="10" d="M14.238,11.481"/>
	</g>
	<g opacity="0.9">
		<path fill="#00BCD4" d="M14.239,12.423c-0.325,0-0.643-0.168-0.816-0.471L9.657,5.43c-0.26-0.451-0.105-1.026,0.345-1.286
			c0.449-0.261,1.025-0.105,1.286,0.345l3.766,6.522c0.26,0.45,0.105,1.026-0.345,1.286C14.56,12.383,14.397,12.423,14.239,12.423z"
			/>
	</g>
	<g opacity="0.27">
		<path fill="#00BCD4" d="M31.042,26.47c-0.16,0-0.322-0.041-0.47-0.126l-6.521-3.764c-0.451-0.26-0.605-0.836-0.346-1.286
			c0.26-0.451,0.836-0.605,1.285-0.345l6.521,3.764c0.449,0.261,0.604,0.836,0.344,1.286C31.683,26.302,31.366,26.47,31.042,26.47z"
			/>
	</g>
	<g>
		<path fill="#00BCD4" stroke="#3F51B5" stroke-width="1.8823" stroke-linecap="round" stroke-miterlimit="10" d="M24.522,21.765"/>
	</g>
	<g>
		<path fill="#00BCD4" stroke="#3F51B5" stroke-width="1.8823" stroke-linecap="round" stroke-miterlimit="10" d="M11.481,14.237"/>
	</g>
	<g opacity="0.81">
		<path fill="#00BCD4" d="M11.481,15.178c-0.16,0-0.321-0.041-0.471-0.126l-6.521-3.766C4.039,11.025,3.884,10.45,4.144,10
			s0.834-0.604,1.287-0.345l6.521,3.766c0.45,0.26,0.604,0.836,0.346,1.286C12.123,15.009,11.806,15.178,11.481,15.178z"/>
	</g>
	<g>
		<path fill="#00BCD4" d="M21.296,48.294c-0.451-0.26-0.604-0.836-0.346-1.286l3.764-6.52c0.26-0.451,0.836-0.604,1.286-0.345
			c0.45,0.26,0.604,0.835,0.345,1.286l-3.764,6.52C22.321,48.399,21.745,48.553,21.296,48.294z"/>
	</g>
	<g>
		<path fill="#00BCD4" stroke="#3F51B5" stroke-width="1.8823" stroke-linecap="round" stroke-miterlimit="10" d="M21.767,47.478"/>
	</g>
	<g>
		<path fill="#00BCD4" stroke="#3F51B5" stroke-width="1.8823" stroke-linecap="round" stroke-miterlimit="10" d="M14.236,60.52"/>
	</g>
	<g opacity="0.45">
		<path fill="#00BCD4" d="M10.001,67.856c-0.449-0.26-0.604-0.835-0.345-1.286l3.765-6.521c0.26-0.45,0.836-0.604,1.286-0.345
			c0.45,0.26,0.604,0.836,0.345,1.286l-3.765,6.521C11.027,67.962,10.451,68.116,10.001,67.856z"/>
	</g>
	<g opacity="0.18">
		<path fill="#00BCD4" d="M30.571,62.344l-6.521-3.765c-0.449-0.26-0.604-0.836-0.345-1.286c0.261-0.45,0.836-0.604,1.286-0.345
			l6.521,3.765c0.449,0.26,0.604,0.836,0.344,1.286C31.599,62.449,31.021,62.604,30.571,62.344z"/>
	</g>
	<g>
		<path fill="#00BCD4" stroke="#3F51B5" stroke-width="1.8823" stroke-linecap="round" stroke-miterlimit="10" d="M24.521,57.764"/>
	</g>
	<g>
		<path fill="#00BCD4" stroke="#3F51B5" stroke-width="1.8823" stroke-linecap="round" stroke-miterlimit="10" d="M11.479,50.235"/>
	</g>
	<g opacity="0.72">
		<path fill="#00BCD4" d="M11.009,51.05l-6.52-3.764C4.038,47.026,3.886,46.45,4.144,46c0.261-0.45,0.836-0.604,1.287-0.345
			l6.52,3.764c0.45,0.26,0.604,0.836,0.346,1.286C12.034,51.156,11.459,51.31,11.009,51.05z"/>
	</g>
	<g opacity="0.09">
		<path fill="#00BCD4" d="M25.058,54.815c-0.281-0.163-0.471-0.467-0.471-0.815c0-0.52,0.422-0.941,0.941-0.942l7.531,0.001
			c0.518-0.002,0.94,0.42,0.941,0.941c-0.001,0.52-0.422,0.94-0.941,0.941l-7.532-0.001C25.356,54.941,25.196,54.895,25.058,54.815z
			"/>
	</g>
	<g>
		<path fill="#00BCD4" stroke="#3F51B5" stroke-width="1.8823" stroke-linecap="round" stroke-miterlimit="10" d="M25.528,54"/>
	</g>
	<g>
		<path fill="#00BCD4" stroke="#3F51B5" stroke-width="1.8823" stroke-linecap="round" stroke-miterlimit="10" d="M10.474,53.999"/>
	</g>
	<g opacity="0.63">
		<path fill="#00BCD4" d="M2.472,54.816C2.188,54.653,2,54.349,2,54c0-0.52,0.421-0.941,0.941-0.941h7.532
			c0.52,0,0.941,0.422,0.94,0.942c0,0.52-0.422,0.941-0.94,0.941H2.941C2.771,54.941,2.61,54.895,2.472,54.816z"/>
	</g>
	<g opacity="0">
		<path fill="#00BCD4" d="M24.048,51.051c-0.138-0.08-0.258-0.195-0.344-0.344c-0.26-0.45-0.105-1.025,0.346-1.286l6.521-3.766
			c0.451-0.259,1.025-0.106,1.286,0.345s0.106,1.026-0.345,1.286l-6.521,3.766C24.688,51.226,24.33,51.213,24.048,51.051z"/>
	</g>
	<g>
		<path fill="#00BCD4" stroke="#3F51B5" stroke-width="1.8823" stroke-linecap="round" stroke-miterlimit="10" d="M24.521,50.236"/>
	</g>
	<g>
		<path fill="#00BCD4" stroke="#3F51B5" stroke-width="1.8823" stroke-linecap="round" stroke-miterlimit="10" d="M11.483,57.763"/>
	</g>
	<g opacity="0.54">
		<path fill="#00BCD4" d="M4.488,62.344C4.351,62.264,4.229,62.148,4.144,62c-0.26-0.45-0.104-1.025,0.346-1.286l6.521-3.766
			c0.451-0.26,1.024-0.106,1.287,0.345c0.26,0.45,0.104,1.026-0.345,1.286l-6.522,3.766C5.128,62.519,4.771,62.507,4.488,62.344z"/>
	</g>
	<g opacity="0.36">
		<path fill="#00BCD4" d="M17.531,69.874c-0.283-0.163-0.472-0.466-0.472-0.816v-7.531c0-0.52,0.422-0.941,0.94-0.941
			c0.521,0,0.94,0.422,0.94,0.941v7.531c0,0.521-0.42,0.942-0.94,0.941C17.83,70,17.671,69.954,17.531,69.874z"/>
	</g>
	<g>
		<path fill="#00BCD4" stroke="#3F51B5" stroke-width="1.8823" stroke-linecap="round" stroke-miterlimit="10" d="M18.001,61.527"/>
	</g>
	<g>
		<path fill="#00BCD4" stroke="#3F51B5" stroke-width="1.8823" stroke-linecap="round" stroke-miterlimit="10" d="M18.001,46.473"/>
	</g>
	<g opacity="0.9">
		<path fill="#00BCD4" d="M17.531,47.289c-0.281-0.163-0.472-0.467-0.472-0.816v-7.532C17.06,38.42,17.481,38,18,38
			c0.519-0.001,0.94,0.421,0.94,0.941v7.532c0,0.52-0.422,0.942-0.941,0.941C17.829,47.415,17.669,47.368,17.531,47.289z"/>
	</g>
	<g opacity="0.27">
		<path fill="#00BCD4" d="M25.06,67.856c-0.139-0.08-0.26-0.197-0.344-0.344l-3.766-6.52c-0.26-0.45-0.105-1.026,0.346-1.286
			c0.449-0.26,1.025-0.106,1.284,0.344l3.767,6.521c0.258,0.45,0.104,1.025-0.346,1.286C25.698,68.031,25.341,68.018,25.06,67.856z"
			/>
	</g>
	<g>
		<path fill="#00BCD4" stroke="#3F51B5" stroke-width="1.8823" stroke-linecap="round" stroke-miterlimit="10" d="M21.767,60.521"/>
	</g>
	<g>
		<path fill="#00BCD4" stroke="#3F51B5" stroke-width="1.8823" stroke-linecap="round" stroke-miterlimit="10" d="M14.237,47.482"/>
	</g>
	<g opacity="0.81">
		<path fill="#00BCD4" d="M13.765,48.296c-0.138-0.08-0.256-0.196-0.344-0.344l-3.766-6.523C9.396,40.978,9.55,40.403,10,40.143
			c0.45-0.26,1.024-0.107,1.286,0.345l3.766,6.522c0.26,0.45,0.105,1.026-0.345,1.286C14.406,48.47,14.048,48.459,13.765,48.296z"/>
	</g>
	<g>
		<path fill="#00BCD4" d="M23.707,86.705c-0.26-0.451-0.104-1.025,0.345-1.286l6.521-3.765c0.45-0.26,1.026-0.104,1.286,0.345
			c0.26,0.451,0.105,1.026-0.346,1.287l-6.52,3.764C24.543,87.309,23.968,87.154,23.707,86.705z"/>
	</g>
	<g>
		<path fill="#00BCD4" stroke="#3F51B5" stroke-width="1.8823" stroke-linecap="round" stroke-miterlimit="10" d="M24.522,86.234"/>
	</g>
	<g>
		<path fill="#00BCD4" stroke="#3F51B5" stroke-width="1.8823" stroke-linecap="round" stroke-miterlimit="10" d="M11.479,93.764"/>
	</g>
	<g opacity="0.45">
		<path fill="#00BCD4" d="M4.144,98c-0.26-0.451-0.104-1.025,0.346-1.287l6.521-3.764c0.449-0.26,1.025-0.106,1.285,0.344
			c0.26,0.451,0.105,1.025-0.345,1.286l-6.521,3.765C4.979,98.604,4.405,98.449,4.144,98z"/>
	</g>
	<g opacity="0.18">
		<path fill="#00BCD4" d="M24.716,103.512L20.95,96.99c-0.259-0.45-0.105-1.026,0.346-1.286c0.449-0.261,1.025-0.104,1.285,0.344
			l3.766,6.521c0.26,0.451,0.104,1.027-0.346,1.287C25.552,104.116,24.974,103.962,24.716,103.512z"/>
	</g>
	<g>
		<path fill="#00BCD4" stroke="#3F51B5" stroke-width="1.8823" stroke-linecap="round" stroke-miterlimit="10" d="M21.765,96.52"/>
	</g>
	<g>
		<path fill="#00BCD4" stroke="#3F51B5" stroke-width="1.8823" stroke-linecap="round" stroke-miterlimit="10" d="M14.236,83.479"/>
	</g>
	<g opacity="0.72">
		<path fill="#00BCD4" d="M13.421,83.949l-3.765-6.52c-0.261-0.451-0.104-1.027,0.345-1.287c0.451-0.26,1.026-0.105,1.286,0.344
			l3.765,6.521c0.26,0.451,0.104,1.026-0.346,1.286C14.257,84.553,13.681,84.398,13.421,83.949z"/>
	</g>
	<g opacity="0.09">
		<path fill="#00BCD4" d="M23.705,94.234c-0.163-0.281-0.175-0.641-0.001-0.941c0.26-0.45,0.836-0.604,1.287-0.345l6.521,3.767
			c0.449,0.256,0.604,0.834,0.346,1.286c-0.262,0.45-0.836,0.604-1.286,0.345l-6.522-3.768
			C23.901,94.492,23.784,94.373,23.705,94.234z"/>
	</g>
	<g>
		<path fill="#00BCD4" stroke="#3F51B5" stroke-width="1.8823" stroke-linecap="round" stroke-miterlimit="10" d="M24.521,93.764"/>
	</g>
	<g>
		<path fill="#00BCD4" stroke="#3F51B5" stroke-width="1.8823" stroke-linecap="round" stroke-miterlimit="10" d="M11.483,86.236"/>
	</g>
	<g opacity="0.63">
		<path fill="#00BCD4" d="M4.146,82.941c-0.164-0.282-0.176-0.64,0-0.942c0.26-0.45,0.834-0.604,1.285-0.345l6.523,3.766
			c0.45,0.26,0.604,0.836,0.344,1.287c-0.26,0.45-0.836,0.604-1.285,0.346L4.49,83.286C4.341,83.199,4.224,83.079,4.146,82.941z"/>
	</g>
	<g opacity="0">
		<path fill="#00BCD4" d="M24.714,90.469c-0.08-0.138-0.127-0.297-0.127-0.469c0-0.52,0.422-0.941,0.941-0.941h7.531
			c0.521,0,0.941,0.42,0.94,0.941c0.001,0.521-0.421,0.941-0.94,0.941h-7.53C25.181,90.941,24.876,90.751,24.714,90.469z"/>
	</g>
	<g>
		<path fill="#00BCD4" stroke="#3F51B5" stroke-width="1.8823" stroke-linecap="round" stroke-miterlimit="10" d="M25.528,90"/>
	</g>
	<g>
		<path fill="#00BCD4" stroke="#3F51B5" stroke-width="1.8823" stroke-linecap="round" stroke-miterlimit="10" d="M10.474,90"/>
	</g>
	<g opacity="0.54">
		<path fill="#00BCD4" d="M2.126,90.469c-0.08-0.139-0.125-0.299-0.125-0.47c0-0.521,0.422-0.94,0.941-0.94h7.531
			c0.521,0,0.94,0.42,0.941,0.94c0,0.521-0.421,0.94-0.941,0.942H2.942C2.595,90.941,2.289,90.751,2.126,90.469z"/>
	</g>
	<g opacity="0.36">
		<path fill="#00BCD4" d="M9.657,103.512c-0.164-0.283-0.176-0.639-0.001-0.941l3.767-6.522c0.26-0.45,0.836-0.604,1.285-0.345
			c0.451,0.26,0.604,0.836,0.346,1.285l-3.767,6.522c-0.26,0.451-0.835,0.605-1.286,0.345C9.853,103.771,9.737,103.65,9.657,103.512
			z"/>
	</g>
	<g>
		<path fill="#00BCD4" stroke="#3F51B5" stroke-width="1.8823" stroke-linecap="round" stroke-miterlimit="10" d="M14.237,96.518"/>
	</g>
	<g>
		<path fill="#00BCD4" stroke="#3F51B5" stroke-width="1.8823" stroke-linecap="round" stroke-miterlimit="10" d="M21.765,83.48"/>
	</g>
	<g opacity="0.9">
		<path fill="#00BCD4" d="M20.95,83.953c-0.162-0.282-0.175-0.641,0-0.941l3.766-6.523c0.262-0.45,0.836-0.604,1.287-0.344
			c0.449,0.258,0.604,0.834,0.344,1.285l-3.766,6.523c-0.26,0.449-0.836,0.605-1.285,0.344C21.146,84.211,21.03,84.091,20.95,83.953
			z"/>
	</g>
	<g opacity="0.27">
		<path fill="#00BCD4" d="M17.185,105.529c-0.08-0.139-0.125-0.301-0.125-0.471v-7.529c0-0.52,0.422-0.94,0.941-0.94
			s0.942,0.421,0.941,0.94l0.001,7.531c-0.001,0.52-0.423,0.939-0.942,0.94C17.652,105.999,17.347,105.809,17.185,105.529z"/>
	</g>
	<g>
		<path fill="#00BCD4" stroke="#3F51B5" stroke-width="1.8823" stroke-linecap="round" stroke-miterlimit="10" d="M18.001,97.529"/>
	</g>
	<g>
		<path fill="#00BCD4" stroke="#3F51B5" stroke-width="1.8823" stroke-linecap="round" stroke-miterlimit="10" d="M18,82.473"/>
	</g>
	<g opacity="0.81">
		<path fill="#00BCD4" d="M17.185,82.941c-0.08-0.137-0.125-0.297-0.125-0.469v-7.531c0-0.521,0.42-0.942,0.94-0.942
			s0.94,0.419,0.94,0.942v7.531c0,0.52-0.422,0.94-0.94,0.94C17.652,83.414,17.347,83.225,17.185,82.941z"/>
	</g>
	<g>
		<path fill="#00BCD4" d="M24.591,125.999c0-0.521,0.422-0.94,0.94-0.94h7.528c0.52,0,0.94,0.422,0.94,0.94s-0.422,0.94-0.94,0.94
			h-7.528C25.013,126.941,24.591,126.52,24.591,125.999z"/>
	</g>
	<g>
		<path fill="#00BCD4" stroke="#3F51B5" stroke-width="1.8823" stroke-linecap="round" stroke-miterlimit="10" d="M25.531,126"/>
	</g>
	<g>
		<path fill="#00BCD4" stroke="#3F51B5" stroke-width="1.8823" stroke-linecap="round" stroke-miterlimit="10" d="M10.472,125.999"
			/>
	</g>
	<g opacity="0.45">
		<path fill="#00BCD4" d="M2,126c0.001-0.521,0.423-0.941,0.942-0.941h7.529c0.52,0,0.94,0.422,0.941,0.94
			c0,0.521-0.422,0.94-0.941,0.94H2.942C2.423,126.941,2.001,126.52,2,126z"/>
	</g>
	<g opacity="0.18">
		<path fill="#00BCD4" d="M17.06,141.059v-7.529c0-0.52,0.42-0.94,0.94-0.94s0.94,0.422,0.942,0.94v7.529
			c0,0.52-0.422,0.94-0.942,0.94C17.481,141.999,17.06,141.577,17.06,141.059z"/>
	</g>
	<g>
		<path fill="#00BCD4" stroke="#3F51B5" stroke-width="1.8823" stroke-linecap="round" stroke-miterlimit="10" d="M18.001,133.529"
			/>
	</g>
	<g>
		<path fill="#00BCD4" stroke="#3F51B5" stroke-width="1.8823" stroke-linecap="round" stroke-miterlimit="10" d="M18.001,118.471"
			/>
	</g>
	<g opacity="0.72">
		<path fill="#00BCD4" d="M17.06,118.471v-7.529c0-0.521,0.422-0.941,0.941-0.941s0.941,0.422,0.941,0.941v7.527
			c0,0.52-0.422,0.941-0.942,0.941C17.481,119.41,17.06,118.989,17.06,118.471z"/>
	</g>
	<g opacity="0.09">
		<path fill="#00BCD4" d="M20.824,132.52c0-0.326,0.169-0.643,0.47-0.816c0.45-0.26,1.026-0.105,1.287,0.346l3.766,6.523
			c0.26,0.445,0.105,1.023-0.344,1.285c-0.451,0.259-1.027,0.104-1.287-0.344l-3.767-6.525
			C20.865,132.841,20.823,132.68,20.824,132.52z"/>
	</g>
	<g>
		<path fill="#00BCD4" stroke="#3F51B5" stroke-width="1.8823" stroke-linecap="round" stroke-miterlimit="10" d="M21.765,132.518"
			/>
	</g>
	<g>
		<path fill="#00BCD4" stroke="#3F51B5" stroke-width="1.8823" stroke-linecap="round" stroke-miterlimit="10" d="M14.238,119.48"/>
	</g>
	<g opacity="0.63">
		<path fill="#00BCD4" d="M9.53,112.959c0-0.326,0.168-0.643,0.471-0.816c0.45-0.26,1.026-0.104,1.287,0.346l3.766,6.521
			c0.26,0.45,0.105,1.026-0.346,1.287c-0.449,0.26-1.025,0.104-1.285-0.346l-3.767-6.521C9.571,113.281,9.531,113.117,9.53,112.959z
			"/>
	</g>
	<g opacity="0">
		<path fill="#00BCD4" d="M23.579,129.762c0-0.158,0.039-0.32,0.125-0.469c0.26-0.451,0.836-0.604,1.287-0.346l6.521,3.766
			c0.449,0.262,0.605,0.836,0.344,1.287c-0.258,0.45-0.836,0.604-1.285,0.345l-6.521-3.766
			C23.747,130.404,23.579,130.087,23.579,129.762z"/>
	</g>
	<g>
		<path fill="#00BCD4" stroke="#3F51B5" stroke-width="1.8823" stroke-linecap="round" stroke-miterlimit="10" d="M24.519,129.764"
			/>
	</g>
	<g>
		<path fill="#00BCD4" stroke="#3F51B5" stroke-width="1.8823" stroke-linecap="round" stroke-miterlimit="10" d="M11.483,122.236"
			/>
	</g>
	<g opacity="0.54">
		<path fill="#00BCD4" d="M4.019,118.469c0-0.16,0.041-0.32,0.125-0.47c0.261-0.45,0.836-0.604,1.287-0.345l6.521,3.767
			c0.45,0.261,0.604,0.834,0.344,1.286c-0.259,0.45-0.835,0.604-1.285,0.345l-6.523-3.766
			C4.187,119.111,4.019,118.794,4.019,118.469z"/>
	</g>
	<g opacity="0.36">
		<path fill="#00BCD4" d="M4.019,133.529c0-0.325,0.168-0.641,0.471-0.814l6.523-3.767c0.449-0.259,1.025-0.104,1.285,0.346
			s0.104,1.024-0.344,1.285l-6.521,3.767c-0.451,0.262-1.026,0.105-1.287-0.346C4.06,133.852,4.019,133.689,4.019,133.529z"/>
	</g>
	<g>
		<path fill="#00BCD4" stroke="#3F51B5" stroke-width="1.8823" stroke-linecap="round" stroke-miterlimit="10" d="M11.481,129.764"
			/>
	</g>
	<g>
		<path fill="#00BCD4" stroke="#3F51B5" stroke-width="1.8823" stroke-linecap="round" stroke-miterlimit="10" d="M24.521,122.236"
			/>
	</g>
	<g opacity="0.9">
		<path fill="#00BCD4" d="M23.577,122.238c0.001-0.325,0.169-0.643,0.473-0.817l6.521-3.766c0.451-0.259,1.025-0.105,1.285,0.345
			c0.262,0.448,0.107,1.025-0.344,1.286l-6.521,3.767c-0.451,0.26-1.027,0.105-1.287-0.346
			C23.618,122.559,23.578,122.396,23.577,122.238z"/>
	</g>
	<g opacity="0.27">
		<path fill="#00BCD4" d="M9.53,139.041c0-0.16,0.042-0.323,0.127-0.471l3.764-6.521c0.26-0.449,0.836-0.604,1.286-0.345
			c0.451,0.26,0.604,0.837,0.345,1.286l-3.764,6.521c-0.261,0.449-0.836,0.603-1.287,0.345C9.699,139.682,9.53,139.364,9.53,139.041
			z"/>
	</g>
	<g>
		<path fill="#00BCD4" stroke="#3F51B5" stroke-width="1.8823" stroke-linecap="round" stroke-miterlimit="10" d="M14.236,132.521"
			/>
	</g>
	<g>
		<path fill="#00BCD4" stroke="#3F51B5" stroke-width="1.8823" stroke-linecap="round" stroke-miterlimit="10" d="M21.765,119.48"/>
	</g>
	<g opacity="0.81">
		<path fill="#00BCD4" d="M20.823,119.48c-0.001-0.16,0.041-0.32,0.125-0.471l3.766-6.521c0.262-0.451,0.836-0.605,1.286-0.347
			c0.45,0.26,0.604,0.834,0.345,1.287l-3.766,6.522c-0.26,0.448-0.835,0.604-1.286,0.344
			C20.992,120.122,20.823,119.805,20.823,119.48z"/>
	</g>
	<g>
		<path fill="#00BCD4" d="M23.707,165.294c0.261-0.451,0.836-0.604,1.286-0.345l6.52,3.764c0.451,0.26,0.604,0.836,0.346,1.286
			c-0.26,0.45-0.836,0.604-1.286,0.345l-6.521-3.765C23.601,166.32,23.448,165.744,23.707,165.294z"/>
	</g>
	<g>
		<path fill="#00BCD4" stroke="#3F51B5" stroke-width="1.8823" stroke-linecap="round" stroke-miterlimit="10" d="M24.522,165.766"
			/>
	</g>
	<g>
		<path fill="#00BCD4" stroke="#3F51B5" stroke-width="1.8823" stroke-linecap="round" stroke-miterlimit="10" d="M11.481,158.234"
			/>
	</g>
	<g opacity="0.45">
		<path fill="#00BCD4" d="M4.144,154c0.261-0.45,0.836-0.604,1.287-0.346l6.521,3.766c0.45,0.26,0.604,0.835,0.345,1.285
			c-0.26,0.451-0.836,0.604-1.285,0.345l-6.521-3.765C4.038,155.025,3.886,154.45,4.144,154z"/>
	</g>
	<g opacity="0.18">
		<path fill="#00BCD4" d="M9.655,174.57l3.766-6.521c0.26-0.448,0.836-0.604,1.286-0.344c0.45,0.26,0.604,0.836,0.345,1.285
			l-3.765,6.521c-0.26,0.45-0.836,0.604-1.286,0.346C9.552,175.598,9.396,175.02,9.655,174.57z"/>
	</g>
	<g>
		<path fill="#00BCD4" stroke="#3F51B5" stroke-width="1.8823" stroke-linecap="round" stroke-miterlimit="10" d="M14.237,168.52"/>
	</g>
	<g>
		<path fill="#00BCD4" stroke="#3F51B5" stroke-width="1.8823" stroke-linecap="round" stroke-miterlimit="10" d="M21.765,155.479"
			/>
	</g>
	<g opacity="0.72">
		<path fill="#00BCD4" d="M20.95,155.008l3.764-6.52c0.262-0.451,0.838-0.605,1.287-0.346c0.45,0.262,0.604,0.836,0.346,1.285
			l-3.765,6.521c-0.26,0.45-0.836,0.604-1.286,0.345C20.847,156.034,20.691,155.457,20.95,155.008z"/>
	</g>
	<g opacity="0.09">
		<path fill="#00BCD4" d="M17.185,169.059c0.164-0.283,0.469-0.474,0.816-0.474c0.52,0,0.942,0.422,0.942,0.942l-0.001,7.531
			c0.002,0.518-0.42,0.94-0.94,0.941c-0.521-0.002-0.942-0.422-0.942-0.941l0.002-7.533
			C17.06,169.357,17.104,169.195,17.185,169.059z"/>
	</g>
	<g>
		<path fill="#00BCD4" stroke="#3F51B5" stroke-width="1.8823" stroke-linecap="round" stroke-miterlimit="10" d="M18.001,169.527"
			/>
	</g>
	<g>
		<path fill="#00BCD4" stroke="#3F51B5" stroke-width="1.8823" stroke-linecap="round" stroke-miterlimit="10" d="M18.001,154.473"
			/>
	</g>
	<g opacity="0.63">
		<path fill="#00BCD4" d="M17.185,146.471c0.164-0.281,0.468-0.472,0.816-0.472c0.52,0,0.941,0.422,0.942,0.942v7.531
			c0,0.52-0.423,0.94-0.943,0.94c-0.519,0-0.94-0.422-0.94-0.94v-7.533C17.06,146.77,17.106,146.609,17.185,146.471z"/>
	</g>
	<g opacity="0">
		<path fill="#00BCD4" d="M20.95,168.047c0.08-0.138,0.193-0.258,0.343-0.344c0.451-0.262,1.027-0.105,1.288,0.345l3.766,6.521
			c0.258,0.453,0.106,1.027-0.346,1.287c-0.449,0.262-1.025,0.105-1.287-0.345l-3.765-6.521
			C20.774,168.688,20.788,168.329,20.95,168.047z"/>
	</g>
	<g>
		<path fill="#00BCD4" stroke="#3F51B5" stroke-width="1.8823" stroke-linecap="round" stroke-miterlimit="10" d="M21.763,168.52"/>
	</g>
	<g>
		<path fill="#00BCD4" stroke="#3F51B5" stroke-width="1.8823" stroke-linecap="round" stroke-miterlimit="10" d="M14.237,155.482"
			/>
	</g>
	<g opacity="0.54">
		<path fill="#00BCD4" d="M9.657,148.486c0.081-0.139,0.195-0.258,0.345-0.344c0.45-0.26,1.025-0.104,1.286,0.346l3.766,6.523
			c0.26,0.448,0.105,1.023-0.346,1.285c-0.449,0.26-1.025,0.104-1.285-0.345l-3.768-6.522C9.481,149.127,9.494,148.77,9.657,148.486
			z"/>
	</g>
	<g opacity="0.36">
		<path fill="#00BCD4" d="M2.127,161.529c0.163-0.281,0.466-0.471,0.814-0.471h7.532c0.52,0,0.94,0.422,0.94,0.941
			s-0.422,0.939-0.94,0.939l-7.532,0.002c-0.521,0-0.941-0.422-0.94-0.942C2,161.829,2.046,161.668,2.127,161.529z"/>
	</g>
	<g>
		<path fill="#00BCD4" stroke="#3F51B5" stroke-width="1.8823" stroke-linecap="round" stroke-miterlimit="10" d="M10.474,161.999"
			/>
	</g>
	<g>
		<path fill="#00BCD4" stroke="#3F51B5" stroke-width="1.8823" stroke-linecap="round" stroke-miterlimit="10" d="M25.528,161.999"
			/>
	</g>
	<g opacity="0.9">
		<path fill="#00BCD4" d="M24.712,161.529c0.163-0.279,0.467-0.471,0.816-0.471h7.531c0.521,0.002,0.94,0.422,0.94,0.94
			c0.003,0.519-0.421,0.94-0.94,0.94l-7.531,0.002c-0.521-0.002-0.941-0.422-0.941-0.942
			C24.587,161.828,24.632,161.668,24.712,161.529z"/>
	</g>
	<g opacity="0.27">
		<path fill="#00BCD4" d="M4.144,169.059c0.08-0.139,0.197-0.26,0.345-0.345l6.521-3.765c0.45-0.26,1.025-0.105,1.287,0.345
			c0.26,0.45,0.104,1.026-0.346,1.285l-6.52,3.767c-0.451,0.26-1.025,0.104-1.287-0.346C3.97,169.697,3.983,169.338,4.144,169.059z"
			/>
	</g>
	<g>
		<path fill="#00BCD4" stroke="#3F51B5" stroke-width="1.8823" stroke-linecap="round" stroke-miterlimit="10" d="M11.479,165.766"
			/>
	</g>
	<g>
		<path fill="#00BCD4" stroke="#3F51B5" stroke-width="1.8823" stroke-linecap="round" stroke-miterlimit="10" d="M24.519,158.236"
			/>
	</g>
	<g opacity="0.81">
		<path fill="#00BCD4" d="M23.705,157.766c0.079-0.14,0.195-0.259,0.343-0.346l6.522-3.766c0.452-0.26,1.026-0.105,1.286,0.345
			c0.262,0.449,0.107,1.024-0.344,1.287l-6.523,3.766c-0.449,0.259-1.025,0.104-1.285-0.346
			C23.529,158.406,23.542,158.046,23.705,157.766z"/>
	</g>
	<g>
		<path fill="#00BCD4" d="M21.296,203.705c0.451-0.26,1.025-0.105,1.286,0.345l3.765,6.521c0.26,0.449,0.104,1.025-0.344,1.285
			c-0.451,0.261-1.027,0.105-1.287-0.345l-3.765-6.52C20.691,204.541,20.847,203.966,21.296,203.705z"/>
	</g>
	<g>
		<path fill="#00BCD4" stroke="#3F51B5" stroke-width="1.8823" stroke-linecap="round" stroke-miterlimit="10" d="M21.765,204.521"
			/>
	</g>
	<g>
		<path fill="#00BCD4" stroke="#3F51B5" stroke-width="1.8823" stroke-linecap="round" stroke-miterlimit="10" d="M14.237,191.479"
			/>
	</g>
	<g opacity="0.45">
		<path fill="#00BCD4" d="M10,184.143c0.452-0.259,1.026-0.104,1.288,0.347l3.764,6.52c0.26,0.45,0.106,1.026-0.344,1.286
			c-0.451,0.262-1.025,0.105-1.285-0.345l-3.765-6.521C9.396,184.979,9.552,184.404,10,184.143z"/>
	</g>
	<g opacity="0.18">
		<path fill="#00BCD4" d="M4.488,204.713l6.522-3.765c0.448-0.261,1.024-0.104,1.285,0.345c0.26,0.45,0.104,1.025-0.345,1.286
			l-6.521,3.765c-0.451,0.26-1.026,0.105-1.287-0.345C3.886,205.549,4.039,204.973,4.488,204.713z"/>
	</g>
	<g>
		<path fill="#00BCD4" stroke="#3F51B5" stroke-width="1.8823" stroke-linecap="round" stroke-miterlimit="10" d="M11.481,201.764"
			/>
	</g>
	<g>
		<path fill="#00BCD4" stroke="#3F51B5" stroke-width="1.8823" stroke-linecap="round" stroke-miterlimit="10" d="M24.522,194.234"
			/>
	</g>
	<g opacity="0.72">
		<path fill="#00BCD4" d="M24.052,193.419l6.52-3.765c0.451-0.26,1.027-0.105,1.288,0.345c0.259,0.452,0.104,1.026-0.345,1.286
			l-6.521,3.764c-0.45,0.262-1.026,0.105-1.287-0.344C23.448,194.255,23.603,193.68,24.052,193.419z"/>
	</g>
	<g opacity="0.09">
		<path fill="#00BCD4" d="M13.765,203.704c0.283-0.163,0.643-0.177,0.943-0.002c0.45,0.261,0.605,0.837,0.346,1.286l-3.769,6.522
			c-0.257,0.448-0.834,0.604-1.285,0.347c-0.45-0.262-0.604-0.836-0.346-1.287l3.769-6.523
			C13.509,203.9,13.628,203.783,13.765,203.704z"/>
	</g>
	<g>
		<path fill="#00BCD4" stroke="#3F51B5" stroke-width="1.8823" stroke-linecap="round" stroke-miterlimit="10" d="M14.238,204.52"/>
	</g>
	<g>
		<path fill="#00BCD4" stroke="#3F51B5" stroke-width="1.8823" stroke-linecap="round" stroke-miterlimit="10" d="M21.765,191.482"
			/>
	</g>
	<g opacity="0.63">
		<path fill="#00BCD4" d="M25.058,184.145c0.283-0.164,0.642-0.177,0.943-0.002c0.449,0.26,0.604,0.836,0.344,1.287l-3.765,6.522
			c-0.26,0.45-0.836,0.604-1.288,0.344c-0.449-0.26-0.604-0.835-0.344-1.285l3.766-6.522
			C24.802,184.34,24.923,184.223,25.058,184.145z"/>
	</g>
	<g opacity="0">
		<path fill="#00BCD4" d="M17.532,204.711c0.139-0.079,0.297-0.126,0.469-0.126c0.521,0,0.942,0.422,0.943,0.942v7.529
			c-0.002,0.521-0.42,0.943-0.942,0.942c-0.521,0.001-0.94-0.422-0.942-0.942v-7.529C17.06,205.178,17.25,204.875,17.532,204.711z"
			/>
	</g>
	<g>
		<path fill="#00BCD4" stroke="#3F51B5" stroke-width="1.8823" stroke-linecap="round" stroke-miterlimit="10" d="M18,205.527"/>
	</g>
	<g>
		<path fill="#00BCD4" stroke="#3F51B5" stroke-width="1.8823" stroke-linecap="round" stroke-miterlimit="10" d="M18.001,190.473"
			/>
	</g>
	<g opacity="0.54">
		<path fill="#00BCD4" d="M17.532,182.125c0.139-0.08,0.299-0.126,0.47-0.126c0.521,0,0.94,0.422,0.941,0.94l-0.001,7.533
			c0,0.519-0.42,0.939-0.941,0.94c-0.52,0-0.939-0.422-0.941-0.94v-7.533C17.06,182.592,17.249,182.288,17.532,182.125z"/>
	</g>
	<g opacity="0.36">
		<path fill="#00BCD4" d="M4.489,189.656c0.281-0.163,0.639-0.176,0.939,0l6.524,3.765c0.449,0.261,0.603,0.837,0.343,1.287
			c-0.26,0.449-0.836,0.603-1.285,0.344l-6.522-3.766c-0.451-0.261-0.604-0.836-0.343-1.286
			C4.229,189.852,4.351,189.736,4.489,189.656z"/>
	</g>
	<g>
		<path fill="#00BCD4" stroke="#3F51B5" stroke-width="1.8823" stroke-linecap="round" stroke-miterlimit="10" d="M11.481,194.236"
			/>
	</g>
	<g>
		<path fill="#00BCD4" stroke="#3F51B5" stroke-width="1.8823" stroke-linecap="round" stroke-miterlimit="10" d="M24.521,201.764"
			/>
	</g>
	<g opacity="0.9">
		<path fill="#00BCD4" d="M24.048,200.948c0.282-0.161,0.641-0.175,0.943,0l6.521,3.766c0.449,0.263,0.604,0.836,0.344,1.286
			c-0.256,0.45-0.834,0.604-1.284,0.346l-6.522-3.766c-0.451-0.262-0.605-0.837-0.345-1.287
			C23.789,201.145,23.91,201.029,24.048,200.948z"/>
	</g>
	<g opacity="0.27">
		<path fill="#00BCD4" d="M2.472,197.184c0.139-0.078,0.301-0.125,0.472-0.125h7.528c0.521,0,0.941,0.422,0.941,0.94
			c0,0.521-0.422,0.942-0.941,0.94l-7.529,0.002c-0.52-0.002-0.939-0.424-0.941-0.941C2.002,197.65,2.192,197.346,2.472,197.184z"/>
	</g>
	<g>
		<path fill="#00BCD4" stroke="#3F51B5" stroke-width="1.8823" stroke-linecap="round" stroke-miterlimit="10" d="M10.472,197.999"
			/>
	</g>
	<g>
		<path fill="#00BCD4" stroke="#3F51B5" stroke-width="1.8823" stroke-linecap="round" stroke-miterlimit="10" d="M25.528,197.999"
			/>
	</g>
	<g opacity="0.81">
		<path fill="#00BCD4" d="M25.058,197.184c0.139-0.08,0.299-0.125,0.471-0.127l7.529,0.002c0.521,0,0.943,0.422,0.943,0.94
			c0.001,0.521-0.42,0.94-0.941,0.942l-7.532-0.002c-0.519,0-0.94-0.422-0.94-0.94C24.587,197.652,24.777,197.348,25.058,197.184z"
			/>
	</g>
	<g>
		<path fill="#00BCD4" d="M18.001,240.588c0.521,0.001,0.941,0.422,0.942,0.941v7.527c0,0.521-0.423,0.941-0.941,0.941
			c-0.521,0-0.94-0.421-0.942-0.941v-7.527C17.06,241.01,17.481,240.589,18.001,240.588z"/>
	</g>
	<g>
		<path fill="#00BCD4" stroke="#3F51B5" stroke-width="1.8823" stroke-linecap="round" stroke-miterlimit="10" d="M18,241.531"/>
	</g>
	<g>
		<path fill="#00BCD4" stroke="#3F51B5" stroke-width="1.8823" stroke-linecap="round" stroke-miterlimit="10" d="M18.002,226.471"
			/>
	</g>
	<g opacity="0.45">
		<path fill="#00BCD4" d="M18,217.998c0.521,0.002,0.941,0.422,0.942,0.943v7.527c0,0.52-0.422,0.942-0.941,0.941
			c-0.521,0.001-0.941-0.421-0.941-0.941v-7.529C17.06,218.421,17.481,218,18,217.998z"/>
	</g>
	<g opacity="0.18">
		<path fill="#00BCD4" d="M2.942,233.057l7.531,0.002c0.519,0,0.939,0.422,0.939,0.94c0,0.521-0.422,0.94-0.941,0.94H2.943
			c-0.521,0-0.94-0.42-0.94-0.94C2.002,233.48,2.423,233.059,2.942,233.057z"/>
	</g>
	<g>
		<path fill="#00BCD4" stroke="#3F51B5" stroke-width="1.8823" stroke-linecap="round" stroke-miterlimit="10" d="M10.472,233.999"
			/>
	</g>
	<g>
		<path fill="#00BCD4" stroke="#3F51B5" stroke-width="1.8823" stroke-linecap="round" stroke-miterlimit="10" d="M25.531,233.999"
			/>
	</g>
	<g opacity="0.72">
		<path fill="#00BCD4" d="M25.53,233.059h7.527c0.521,0,0.942,0.422,0.943,0.94c-0.002,0.521-0.422,0.942-0.941,0.942l-7.527-0.002
			c-0.52,0.002-0.941-0.422-0.941-0.939C24.591,233.48,25.013,233.059,25.53,233.059z"/>
	</g>
	<g opacity="0.09">
		<path fill="#00BCD4" d="M11.481,236.823c0.326,0,0.644,0.168,0.816,0.47c0.26,0.45,0.105,1.027-0.345,1.287l-6.524,3.766
			c-0.445,0.26-1.023,0.105-1.285-0.344c-0.258-0.452-0.105-1.025,0.344-1.287l6.525-3.766
			C11.159,236.864,11.322,236.822,11.481,236.823z"/>
	</g>
	<g>
		<path fill="#00BCD4" stroke="#3F51B5" stroke-width="1.8823" stroke-linecap="round" stroke-miterlimit="10" d="M11.483,237.764"
			/>
	</g>
	<g>
		<path fill="#00BCD4" stroke="#3F51B5" stroke-width="1.8823" stroke-linecap="round" stroke-miterlimit="10" d="M24.521,230.236"
			/>
	</g>
	<g opacity="0.63">
		<path fill="#00BCD4" d="M31.041,225.529c0.327,0,0.644,0.168,0.817,0.471c0.26,0.45,0.104,1.025-0.346,1.287l-6.521,3.766
			c-0.451,0.262-1.027,0.105-1.288-0.346c-0.259-0.449-0.104-1.023,0.345-1.285l6.523-3.768
			C30.722,225.57,30.884,225.529,31.041,225.529z"/>
	</g>
	<g opacity="0">
		<path fill="#00BCD4" d="M14.239,239.577c0.158,0,0.32,0.039,0.469,0.125c0.451,0.261,0.604,0.837,0.346,1.288l-3.767,6.521
			c-0.262,0.45-0.836,0.607-1.287,0.347c-0.45-0.26-0.604-0.836-0.345-1.287l3.766-6.521
			C13.597,239.745,13.913,239.578,14.239,239.577z"/>
	</g>
	<g>
		<path fill="#00BCD4" stroke="#3F51B5" stroke-width="1.8823" stroke-linecap="round" stroke-miterlimit="10" d="M14.237,240.518"
			/>
	</g>
	<g>
		<path fill="#00BCD4" stroke="#3F51B5" stroke-width="1.8823" stroke-linecap="round" stroke-miterlimit="10" d="M21.765,227.48"/>
	</g>
	<g opacity="0.54">
		<path fill="#00BCD4" d="M25.532,220.018c0.16,0,0.32,0.041,0.47,0.125c0.45,0.26,0.604,0.836,0.345,1.287l-3.768,6.521
			c-0.259,0.449-0.833,0.604-1.286,0.345c-0.45-0.26-0.603-0.835-0.345-1.286l3.766-6.523
			C24.89,220.186,25.206,220.018,25.532,220.018z"/>
	</g>
	<g opacity="0.36">
		<path fill="#00BCD4" d="M10.472,220.018c0.326,0,0.642,0.168,0.814,0.471l3.768,6.521c0.26,0.45,0.104,1.026-0.346,1.286
			c-0.449,0.259-1.025,0.104-1.285-0.345l-3.766-6.521c-0.262-0.451-0.105-1.027,0.346-1.287
			C10.147,220.059,10.312,220.018,10.472,220.018z"/>
	</g>
	<g>
		<path fill="#00BCD4" stroke="#3F51B5" stroke-width="1.8823" stroke-linecap="round" stroke-miterlimit="10" d="M14.238,227.48"/>
	</g>
	<g>
		<path fill="#00BCD4" stroke="#3F51B5" stroke-width="1.8823" stroke-linecap="round" stroke-miterlimit="10" d="M21.765,240.52"/>
	</g>
	<g opacity="0.9">
		<path fill="#00BCD4" d="M21.763,239.575c0.326,0.002,0.643,0.17,0.817,0.472l3.767,6.521c0.258,0.451,0.104,1.027-0.347,1.287
			c-0.446,0.262-1.024,0.104-1.284-0.344l-3.768-6.522c-0.26-0.451-0.105-1.027,0.345-1.286
			C21.442,239.616,21.604,239.577,21.763,239.575z"/>
	</g>
	<g opacity="0.27">
		<path fill="#00BCD4" d="M4.959,225.527c0.16,0.002,0.324,0.043,0.472,0.129l6.521,3.765c0.45,0.259,0.604,0.835,0.345,1.285
			s-0.836,0.604-1.285,0.343l-6.522-3.762c-0.449-0.262-0.603-0.837-0.345-1.286C4.32,225.697,4.638,225.529,4.959,225.527z"/>
	</g>
	<g>
		<path fill="#00BCD4" stroke="#3F51B5" stroke-width="1.8823" stroke-linecap="round" stroke-miterlimit="10" d="M11.479,230.234"
			/>
	</g>
	<g>
		<path fill="#00BCD4" stroke="#3F51B5" stroke-width="1.8823" stroke-linecap="round" stroke-miterlimit="10" d="M24.521,237.764"
			/>
	</g>
	<g opacity="0.81">
		<path fill="#00BCD4" d="M24.521,236.822c0.16,0,0.322,0.041,0.471,0.125l6.521,3.767c0.449,0.261,0.604,0.837,0.346,1.286
			c-0.26,0.451-0.834,0.604-1.287,0.346l-6.523-3.768c-0.449-0.26-0.603-0.835-0.343-1.285
			C23.878,236.99,24.196,236.823,24.521,236.822z"/>
	</g>
	<g>
		<path fill="#00BCD4" d="M14.707,275.705c0.451,0.262,0.604,0.836,0.345,1.286l-3.765,6.52c-0.26,0.451-0.836,0.604-1.286,0.346
			c-0.449-0.26-0.604-0.836-0.345-1.286l3.765-6.521C13.681,275.6,14.257,275.447,14.707,275.705z"/>
	</g>
	<g>
		<path fill="#00BCD4" stroke="#3F51B5" stroke-width="1.8823" stroke-linecap="round" stroke-miterlimit="10" d="M14.235,276.521"
			/>
	</g>
	<g>
		<path fill="#00BCD4" stroke="#3F51B5" stroke-width="1.8823" stroke-linecap="round" stroke-miterlimit="10" d="M21.767,263.479"
			/>
	</g>
	<g opacity="0.45">
		<path fill="#00BCD4" d="M26.001,256.141c0.45,0.264,0.604,0.838,0.346,1.289l-3.766,6.521c-0.26,0.448-0.835,0.604-1.285,0.345
			c-0.451-0.26-0.604-0.835-0.345-1.286l3.765-6.521C24.974,256.037,25.55,255.883,26.001,256.141z"/>
	</g>
	<g opacity="0.18">
		<path fill="#00BCD4" d="M5.431,261.654l6.521,3.766c0.449,0.26,0.603,0.836,0.345,1.286c-0.261,0.448-0.837,0.604-1.287,0.345
			l-6.521-3.765c-0.45-0.261-0.604-0.835-0.345-1.286C4.405,261.549,4.981,261.395,5.431,261.654z"/>
	</g>
	<g>
		<path fill="#00BCD4" stroke="#3F51B5" stroke-width="1.8823" stroke-linecap="round" stroke-miterlimit="10" d="M11.481,266.234"
			/>
	</g>
	<g>
		<path fill="#00BCD4" stroke="#3F51B5" stroke-width="1.8823" stroke-linecap="round" stroke-miterlimit="10" d="M24.522,273.764"
			/>
	</g>
	<g opacity="0.72">
		<path fill="#00BCD4" d="M24.992,272.948l6.521,3.764c0.451,0.261,0.604,0.837,0.347,1.287c-0.263,0.451-0.837,0.605-1.287,0.346
			l-6.519-3.766c-0.451-0.259-0.604-0.836-0.346-1.285C23.968,272.844,24.543,272.691,24.992,272.948z"/>
	</g>
	<g opacity="0.09">
		<path fill="#00BCD4" d="M10.943,269.184c0.282,0.164,0.473,0.467,0.473,0.815c0,0.521-0.422,0.942-0.942,0.942l-7.531-0.002
			c-0.516,0.002-0.94-0.42-0.941-0.939c0.002-0.521,0.422-0.941,0.941-0.943l7.533,0.002
			C10.644,269.059,10.806,269.104,10.943,269.184z"/>
	</g>
	<g>
		<path fill="#00BCD4" stroke="#3F51B5" stroke-width="1.8823" stroke-linecap="round" stroke-miterlimit="10" d="M10.474,270"/>
	</g>
	<g>
		<path fill="#00BCD4" stroke="#3F51B5" stroke-width="1.8823" stroke-linecap="round" stroke-miterlimit="10" d="M25.528,270"/>
	</g>
	<g opacity="0.63">
		<path fill="#00BCD4" d="M33.529,269.184c0.282,0.164,0.473,0.467,0.473,0.815c0,0.521-0.423,0.94-0.942,0.942h-7.53
			c-0.521,0-0.942-0.422-0.942-0.943c0-0.52,0.422-0.939,0.941-0.939h7.533C33.229,269.059,33.392,269.104,33.529,269.184z"/>
	</g>
	<g opacity="0">
		<path fill="#00BCD4" d="M11.953,272.948c0.138,0.079,0.259,0.194,0.345,0.343c0.26,0.451,0.104,1.027-0.346,1.288l-6.521,3.765
			c-0.451,0.259-1.027,0.107-1.287-0.345c-0.26-0.449-0.104-1.025,0.346-1.286l6.521-3.766
			C11.313,272.773,11.671,272.786,11.953,272.948z"/>
	</g>
	<g>
		<path fill="#00BCD4" stroke="#3F51B5" stroke-width="1.8823" stroke-linecap="round" stroke-miterlimit="10" d="M11.481,273.762"
			/>
	</g>
	<g>
		<path fill="#00BCD4" stroke="#3F51B5" stroke-width="1.8823" stroke-linecap="round" stroke-miterlimit="10" d="M24.519,266.236"
			/>
	</g>
	<g opacity="0.54">
		<path fill="#00BCD4" d="M31.515,261.656c0.139,0.08,0.258,0.195,0.344,0.344c0.26,0.45,0.104,1.025-0.346,1.286l-6.523,3.765
			c-0.448,0.26-1.023,0.107-1.286-0.344c-0.26-0.45-0.104-1.023,0.345-1.286l6.523-3.767
			C30.873,261.48,31.231,261.493,31.515,261.656z"/>
	</g>
	<g opacity="0.36">
		<path fill="#00BCD4" d="M18.472,254.126c0.281,0.162,0.471,0.466,0.47,0.813l0.001,7.531c-0.001,0.521-0.424,0.941-0.943,0.941
			c-0.52-0.001-0.939-0.423-0.939-0.941v-7.531c0-0.521,0.422-0.941,0.941-0.94C18.171,253.999,18.332,254.045,18.472,254.126z"/>
	</g>
	<g>
		<path fill="#00BCD4" stroke="#3F51B5" stroke-width="1.8823" stroke-linecap="round" stroke-miterlimit="10" d="M18.001,262.473"
			/>
	</g>
	<g>
		<path fill="#00BCD4" stroke="#3F51B5" stroke-width="1.8823" stroke-linecap="round" stroke-miterlimit="10" d="M18.001,277.528"
			/>
	</g>
	<g opacity="0.9">
		<path fill="#00BCD4" d="M18.472,276.709c0.279,0.164,0.471,0.468,0.472,0.817v7.53c-0.002,0.521-0.423,0.941-0.942,0.941
			c-0.52,0.003-0.941-0.422-0.941-0.94v-7.531c0.002-0.521,0.422-0.942,0.942-0.941C18.173,276.584,18.332,276.631,18.472,276.709z"
			/>
	</g>
	<g opacity="0.27">
		<path fill="#00BCD4" d="M10.942,256.143c0.138,0.08,0.259,0.197,0.344,0.346l3.766,6.521c0.26,0.449,0.104,1.025-0.345,1.285
			c-0.45,0.261-1.026,0.104-1.284-0.346l-3.769-6.519c-0.259-0.451-0.103-1.027,0.346-1.287
			C10.304,255.968,10.662,255.98,10.942,256.143z"/>
	</g>
	<g>
		<path fill="#00BCD4" stroke="#3F51B5" stroke-width="1.8823" stroke-linecap="round" stroke-miterlimit="10" d="M14.236,263.477"
			/>
	</g>
	<g>
		<path fill="#00BCD4" stroke="#3F51B5" stroke-width="1.8823" stroke-linecap="round" stroke-miterlimit="10" d="M21.765,276.518"
			/>
	</g>
	<g opacity="0.81">
		<path fill="#00BCD4" d="M22.236,275.703c0.138,0.079,0.257,0.195,0.345,0.343l3.766,6.522c0.258,0.45,0.104,1.027-0.344,1.286
			c-0.451,0.263-1.025,0.106-1.289-0.344l-3.766-6.523c-0.26-0.448-0.104-1.024,0.346-1.285
			C21.595,275.527,21.954,275.541,22.236,275.703z"/>
	</g>
	<g>
		<path fill="#00BCD4" d="M12.296,309.294c0.258,0.452,0.104,1.025-0.346,1.286l-6.52,3.764c-0.451,0.262-1.026,0.105-1.287-0.345
			c-0.26-0.449-0.105-1.025,0.345-1.286l6.521-3.764C11.459,308.69,12.034,308.845,12.296,309.294z"/>
	</g>
	<g>
		<path fill="#00BCD4" stroke="#3F51B5" stroke-width="1.8823" stroke-linecap="round" stroke-miterlimit="10" d="M11.478,309.764"
			/>
	</g>
	<g>
		<path fill="#00BCD4" stroke="#3F51B5" stroke-width="1.8823" stroke-linecap="round" stroke-miterlimit="10" d="M24.522,302.235"
			/>
	</g>
	<g opacity="0.45">
		<path fill="#00BCD4" d="M31.858,297.997c0.259,0.453,0.105,1.027-0.346,1.289l-6.521,3.764c-0.45,0.259-1.025,0.106-1.286-0.344
			c-0.261-0.451-0.106-1.025,0.345-1.286l6.521-3.765C31.021,297.395,31.597,297.549,31.858,297.997z"/>
	</g>
	<g opacity="0.18">
		<path fill="#00BCD4" d="M11.287,292.487l3.765,6.521c0.26,0.45,0.104,1.025-0.346,1.286c-0.449,0.259-1.025,0.104-1.285-0.345
			l-3.766-6.521c-0.26-0.448-0.105-1.023,0.345-1.286C10.451,291.883,11.027,292.037,11.287,292.487z"/>
	</g>
	<g>
		<path fill="#00BCD4" stroke="#3F51B5" stroke-width="1.8823" stroke-linecap="round" stroke-miterlimit="10" d="M14.237,299.479"
			/>
	</g>
	<g>
		<path fill="#00BCD4" stroke="#3F51B5" stroke-width="1.8823" stroke-linecap="round" stroke-miterlimit="10" d="M21.767,312.521"
			/>
	</g>
	<g opacity="0.72">
		<path fill="#00BCD4" d="M22.581,312.049l3.764,6.521c0.262,0.45,0.106,1.026-0.342,1.288c-0.453,0.259-1.027,0.104-1.289-0.346
			l-3.763-6.521c-0.261-0.449-0.104-1.026,0.343-1.285C21.745,311.447,22.321,311.602,22.581,312.049z"/>
	</g>
	<g opacity="0.09">
		<path fill="#00BCD4" d="M12.296,301.764c0.162,0.282,0.176,0.642,0.002,0.942c-0.261,0.45-0.838,0.604-1.289,0.346l-6.521-3.769
			c-0.448-0.256-0.604-0.834-0.346-1.284c0.262-0.449,0.836-0.604,1.287-0.347l6.523,3.77
			C12.099,301.506,12.218,301.626,12.296,301.764z"/>
	</g>
	<g>
		<path fill="#00BCD4" stroke="#3F51B5" stroke-width="1.8823" stroke-linecap="round" stroke-miterlimit="10" d="M11.481,302.237"
			/>
	</g>
	<g>
		<path fill="#00BCD4" stroke="#3F51B5" stroke-width="1.8823" stroke-linecap="round" stroke-miterlimit="10" d="M24.519,309.764"
			/>
	</g>
	<g opacity="0.63">
		<path fill="#00BCD4" d="M31.856,313.057c0.162,0.284,0.177,0.642,0.002,0.943c-0.26,0.449-0.838,0.604-1.288,0.344l-6.521-3.765
			c-0.451-0.261-0.605-0.837-0.346-1.288c0.26-0.449,0.835-0.603,1.285-0.344l6.523,3.767
			C31.66,312.8,31.778,312.919,31.856,313.057z"/>
	</g>
	<g opacity="0">
		<path fill="#00BCD4" d="M11.289,305.53c0.079,0.139,0.126,0.298,0.126,0.469c0,0.521-0.423,0.942-0.943,0.943H2.942
			C2.421,306.94,1.998,306.521,2,306c-0.001-0.52,0.421-0.94,0.941-0.941l7.53-0.001C10.822,305.057,11.125,305.248,11.289,305.53z"
			/>
	</g>
	<g>
		<path fill="#00BCD4" stroke="#3F51B5" stroke-width="1.8823" stroke-linecap="round" stroke-miterlimit="10" d="M10.474,305.998"
			/>
	</g>
	<g>
		<path fill="#00BCD4" stroke="#3F51B5" stroke-width="1.8823" stroke-linecap="round" stroke-miterlimit="10" d="M25.528,305.999"
			/>
	</g>
	<g opacity="0.54">
		<path fill="#00BCD4" d="M33.876,305.531c0.08,0.139,0.125,0.299,0.127,0.47c0,0.52-0.423,0.939-0.941,0.941l-7.533-0.002
			c-0.518,0.001-0.939-0.42-0.941-0.94c0-0.521,0.422-0.939,0.941-0.941l7.531-0.001C33.408,305.058,33.712,305.248,33.876,305.531z
			"/>
	</g>
	<g opacity="0.36">
		<path fill="#00BCD4" d="M26.345,292.489c0.164,0.281,0.176,0.639,0,0.938l-3.765,6.523c-0.26,0.449-0.837,0.604-1.287,0.344
			c-0.448-0.26-0.602-0.836-0.344-1.285l3.765-6.521c0.262-0.452,0.836-0.605,1.287-0.346
			C26.147,292.228,26.265,292.349,26.345,292.489z"/>
	</g>
	<g>
		<path fill="#00BCD4" stroke="#3F51B5" stroke-width="1.8823" stroke-linecap="round" stroke-miterlimit="10" d="M21.765,299.481"
			/>
	</g>
	<g>
		<path fill="#00BCD4" stroke="#3F51B5" stroke-width="1.8823" stroke-linecap="round" stroke-miterlimit="10" d="M14.237,312.52"/>
	</g>
	<g opacity="0.9">
		<path fill="#00BCD4" d="M15.054,312.045c0.16,0.282,0.174,0.641,0,0.944l-3.767,6.521c-0.262,0.448-0.837,0.604-1.287,0.345
			c-0.45-0.258-0.604-0.837-0.345-1.285l3.766-6.523c0.262-0.45,0.838-0.604,1.287-0.344
			C14.856,311.787,14.972,311.908,15.054,312.045z"/>
	</g>
	<g opacity="0.27">
		<path fill="#00BCD4" d="M18.817,290.469c0.078,0.14,0.125,0.302,0.125,0.473v7.528c0.001,0.52-0.422,0.94-0.94,0.94
			c-0.521,0-0.942-0.422-0.94-0.941l-0.002-7.528c0.002-0.521,0.424-0.94,0.941-0.94C18.351,289.999,18.655,290.19,18.817,290.469z"
			/>
	</g>
	<g>
		<path fill="#00BCD4" stroke="#3F51B5" stroke-width="1.8823" stroke-linecap="round" stroke-miterlimit="10" d="M18.002,298.468"
			/>
	</g>
	<g>
		<path fill="#00BCD4" stroke="#3F51B5" stroke-width="1.8823" stroke-linecap="round" stroke-miterlimit="10" d="M18.001,313.527"
			/>
	</g>
	<g opacity="0.81">
		<path fill="#00BCD4" d="M18.817,313.057c0.08,0.139,0.125,0.299,0.127,0.471l-0.001,7.529c-0.001,0.521-0.423,0.943-0.941,0.943
			c-0.521,0.001-0.94-0.42-0.942-0.941v-7.532c0-0.519,0.423-0.939,0.943-0.94C18.349,312.584,18.653,312.776,18.817,313.057z"/>
	</g>
	<g>
		<path fill="#00BCD4" d="M11.412,342c-0.001,0.521-0.422,0.94-0.94,0.941l-7.528-0.001c-0.521,0.001-0.942-0.423-0.94-0.941
			c0-0.52,0.42-0.94,0.94-0.941h7.528C10.991,341.058,11.411,341.481,11.412,342z"/>
	</g>
	<g>
		<path fill="#00BCD4" stroke="#3F51B5" stroke-width="1.8823" stroke-linecap="round" stroke-miterlimit="10" d="M10.47,341.998"/>
	</g>
	<g>
		<path fill="#00BCD4" stroke="#3F51B5" stroke-width="1.8823" stroke-linecap="round" stroke-miterlimit="10" d="M25.531,341.999"
			/>
	</g>
	<g opacity="0.45">
		<path fill="#00BCD4" d="M34.003,341.998c-0.002,0.521-0.422,0.942-0.943,0.943l-7.528-0.001c-0.519-0.002-0.942-0.422-0.94-0.94
			c0-0.521,0.42-0.941,0.94-0.941h7.53C33.579,341.058,34.001,341.479,34.003,341.998z"/>
	</g>
	<g opacity="0.18">
		<path fill="#00BCD4" d="M18.944,326.94v7.529c-0.001,0.521-0.424,0.94-0.943,0.941c-0.518-0.001-0.939-0.422-0.941-0.941v-7.528
			c0-0.52,0.422-0.94,0.943-0.941C18.521,325.999,18.943,326.421,18.944,326.94z"/>
	</g>
	<g>
		<path fill="#00BCD4" stroke="#3F51B5" stroke-width="1.8823" stroke-linecap="round" stroke-miterlimit="10" d="M18.001,334.47"/>
	</g>
	<g>
		<path fill="#00BCD4" stroke="#3F51B5" stroke-width="1.8823" stroke-linecap="round" stroke-miterlimit="10" d="M18.001,349.53"/>
	</g>
	<g opacity="0.72">
		<path fill="#00BCD4" d="M18.943,349.529v7.527c0.001,0.521-0.421,0.942-0.941,0.943c-0.521-0.002-0.942-0.422-0.942-0.942
			l0.002-7.527c-0.002-0.52,0.422-0.941,0.939-0.941C18.521,348.589,18.941,349.011,18.943,349.529z"/>
	</g>
	<g opacity="0.09">
		<path fill="#00BCD4" d="M15.179,335.479c0,0.325-0.168,0.644-0.47,0.816c-0.45,0.26-1.026,0.105-1.288-0.345l-3.764-6.524
			c-0.26-0.444-0.105-1.023,0.343-1.285c0.452-0.258,1.026-0.104,1.288,0.344l3.766,6.525
			C15.138,335.157,15.179,335.32,15.179,335.479z"/>
	</g>
	<g>
		<path fill="#00BCD4" stroke="#3F51B5" stroke-width="1.8823" stroke-linecap="round" stroke-miterlimit="10" d="M14.236,335.481"
			/>
	</g>
	<g>
		<path fill="#00BCD4" stroke="#3F51B5" stroke-width="1.8823" stroke-linecap="round" stroke-miterlimit="10" d="M21.765,348.519"
			/>
	</g>
	<g opacity="0.63">
		<path fill="#00BCD4" d="M26.472,355.039c-0.002,0.327-0.168,0.643-0.471,0.817c-0.449,0.26-1.027,0.104-1.287-0.347l-3.767-6.521
			c-0.261-0.451-0.106-1.027,0.346-1.288c0.449-0.259,1.024-0.104,1.285,0.345l3.767,6.524
			C26.431,354.718,26.472,354.881,26.472,355.039z"/>
	</g>
	<g opacity="0">
		<path fill="#00BCD4" d="M12.423,338.237c0,0.158-0.039,0.32-0.125,0.469c-0.261,0.452-0.836,0.604-1.287,0.346l-6.521-3.765
			c-0.45-0.262-0.607-0.837-0.346-1.287c0.259-0.451,0.836-0.604,1.287-0.345l6.521,3.765
			C12.255,337.594,12.423,337.911,12.423,338.237z"/>
	</g>
	<g>
		<path fill="#00BCD4" stroke="#3F51B5" stroke-width="1.8823" stroke-linecap="round" stroke-miterlimit="10" d="M11.483,338.235"
			/>
	</g>
	<g>
		<path fill="#00BCD4" stroke="#3F51B5" stroke-width="1.8823" stroke-linecap="round" stroke-miterlimit="10" d="M24.521,345.763"
			/>
	</g>
	<g opacity="0.54">
		<path fill="#00BCD4" d="M31.983,349.531c0,0.16-0.041,0.32-0.125,0.47c-0.26,0.45-0.836,0.604-1.286,0.345l-6.522-3.769
			c-0.449-0.258-0.604-0.833-0.346-1.285c0.262-0.45,0.835-0.603,1.286-0.344l6.522,3.765
			C31.815,348.888,31.981,349.204,31.983,349.531z"/>
	</g>
	<g opacity="0.36">
		<path fill="#00BCD4" d="M31.981,334.47c0.002,0.325-0.168,0.642-0.469,0.814l-6.521,3.767c-0.45,0.259-1.027,0.104-1.287-0.346
			c-0.259-0.449-0.104-1.025,0.346-1.285l6.521-3.766c0.451-0.262,1.027-0.106,1.285,0.345
			C31.943,334.147,31.983,334.31,31.981,334.47z"/>
	</g>
	<g>
		<path fill="#00BCD4" stroke="#3F51B5" stroke-width="1.8823" stroke-linecap="round" stroke-miterlimit="10" d="M24.521,338.236"
			/>
	</g>
	<g>
		<path fill="#00BCD4" stroke="#3F51B5" stroke-width="1.8823" stroke-linecap="round" stroke-miterlimit="10" d="M11.481,345.764"
			/>
	</g>
	<g opacity="0.9">
		<path fill="#00BCD4" d="M12.425,345.761c-0.002,0.325-0.168,0.643-0.472,0.818l-6.522,3.766c-0.451,0.257-1.026,0.104-1.285-0.346
			c-0.262-0.448-0.105-1.026,0.343-1.285l6.522-3.768c0.453-0.26,1.027-0.105,1.287,0.346
			C12.384,345.44,12.423,345.602,12.425,345.761z"/>
	</g>
	<g opacity="0.27">
		<path fill="#00BCD4" d="M26.472,328.957c0,0.16-0.041,0.324-0.127,0.471l-3.765,6.521c-0.259,0.45-0.835,0.604-1.284,0.345
			c-0.451-0.26-0.605-0.837-0.345-1.285l3.763-6.521c0.262-0.449,0.838-0.604,1.285-0.345
			C26.306,328.318,26.472,328.635,26.472,328.957z"/>
	</g>
	<g>
		<path fill="#00BCD4" stroke="#3F51B5" stroke-width="1.8823" stroke-linecap="round" stroke-miterlimit="10" d="M21.767,335.478"
			/>
	</g>
	<g>
		<path fill="#00BCD4" stroke="#3F51B5" stroke-width="1.8823" stroke-linecap="round" stroke-miterlimit="10" d="M14.238,348.518"
			/>
	</g>
	<g opacity="0.81">
		<path fill="#00BCD4" d="M15.179,348.519c0,0.159-0.041,0.321-0.125,0.472l-3.766,6.521c-0.261,0.45-0.838,0.605-1.287,0.348
			c-0.451-0.261-0.604-0.834-0.346-1.287l3.768-6.523c0.26-0.448,0.836-0.603,1.286-0.343
			C15.011,347.876,15.179,348.194,15.179,348.519z"/>
	</g>
	<g>
		<path fill="#00BCD4" d="M12.296,374.705c-0.263,0.45-0.837,0.604-1.287,0.345l-6.52-3.765c-0.452-0.26-0.604-0.837-0.344-1.286
			c0.259-0.449,0.834-0.604,1.285-0.345l6.521,3.764C12.401,373.678,12.554,374.255,12.296,374.705z"/>
	</g>
	<g>
		<path fill="#00BCD4" stroke="#3F51B5" stroke-width="1.8823" stroke-linecap="round" stroke-miterlimit="10" d="M11.479,374.233"
			/>
	</g>
	<g>
		<path fill="#00BCD4" stroke="#3F51B5" stroke-width="1.8823" stroke-linecap="round" stroke-miterlimit="10" d="M24.522,381.764"
			/>
	</g>
	<g opacity="0.45">
		<path fill="#00BCD4" d="M31.86,385.999c-0.264,0.45-0.838,0.604-1.289,0.345l-6.52-3.766c-0.449-0.26-0.605-0.835-0.346-1.285
			c0.26-0.451,0.835-0.604,1.286-0.345l6.521,3.766C31.964,384.973,32.118,385.548,31.86,385.999z"/>
	</g>
	<g opacity="0.18">
		<path fill="#00BCD4" d="M26.347,365.428l-3.766,6.521c-0.26,0.449-0.836,0.603-1.287,0.344c-0.447-0.26-0.604-0.835-0.344-1.286
			l3.766-6.521c0.258-0.449,0.834-0.604,1.286-0.345C26.452,364.403,26.606,364.979,26.347,365.428z"/>
	</g>
	<g>
		<path fill="#00BCD4" stroke="#3F51B5" stroke-width="1.8823" stroke-linecap="round" stroke-miterlimit="10" d="M21.767,371.479"
			/>
	</g>
	<g>
		<path fill="#00BCD4" stroke="#3F51B5" stroke-width="1.8823" stroke-linecap="round" stroke-miterlimit="10" d="M14.237,384.521"
			/>
	</g>
	<g opacity="0.72">
		<path fill="#00BCD4" d="M15.052,384.99l-3.764,6.52c-0.26,0.452-0.836,0.605-1.287,0.347c-0.451-0.263-0.605-0.836-0.345-1.287
			l3.767-6.52c0.258-0.45,0.836-0.604,1.284-0.346C15.156,383.965,15.31,384.541,15.052,384.99z"/>
	</g>
	<g opacity="0.09">
		<path fill="#00BCD4" d="M18.817,370.941c-0.164,0.281-0.467,0.474-0.816,0.473c-0.52,0-0.941-0.422-0.941-0.942l0.002-7.531
			c-0.002-0.517,0.42-0.94,0.938-0.941c0.521,0.002,0.942,0.422,0.944,0.939l-0.002,7.534
			C18.942,370.642,18.897,370.803,18.817,370.941z"/>
	</g>
	<g>
		<path fill="#00BCD4" stroke="#3F51B5" stroke-width="1.8823" stroke-linecap="round" stroke-miterlimit="10" d="M18,370.471"/>
	</g>
	<g>
		<path fill="#00BCD4" stroke="#3F51B5" stroke-width="1.8823" stroke-linecap="round" stroke-miterlimit="10" d="M18,385.527"/>
	</g>
	<g opacity="0.63">
		<path fill="#00BCD4" d="M18.818,393.528c-0.165,0.281-0.468,0.473-0.816,0.473c-0.521,0-0.942-0.424-0.942-0.943v-7.529
			c0-0.521,0.422-0.943,0.943-0.943c0.52,0.001,0.939,0.422,0.94,0.941v7.532C18.941,393.228,18.897,393.391,18.818,393.528z"/>
	</g>
	<g opacity="0">
		<path fill="#00BCD4" d="M15.052,371.951c-0.08,0.138-0.195,0.259-0.342,0.344c-0.451,0.261-1.027,0.105-1.289-0.345l-3.765-6.521
			c-0.259-0.451-0.106-1.027,0.345-1.287c0.449-0.261,1.025-0.104,1.286,0.346l3.767,6.521
			C15.228,371.311,15.214,371.669,15.052,371.951z"/>
	</g>
	<g>
		<path fill="#00BCD4" stroke="#3F51B5" stroke-width="1.8823" stroke-linecap="round" stroke-miterlimit="10" d="M14.239,371.479"
			/>
	</g>
	<g>
		<path fill="#00BCD4" stroke="#3F51B5" stroke-width="1.8823" stroke-linecap="round" stroke-miterlimit="10" d="M21.765,384.518"
			/>
	</g>
	<g opacity="0.54">
		<path fill="#00BCD4" d="M26.345,391.512c-0.08,0.14-0.195,0.259-0.342,0.346c-0.451,0.26-1.025,0.104-1.287-0.346l-3.766-6.524
			c-0.259-0.447-0.107-1.023,0.344-1.285c0.451-0.26,1.024-0.104,1.286,0.345l3.769,6.522
			C26.521,390.871,26.507,391.229,26.345,391.512z"/>
	</g>
	<g opacity="0.36">
		<path fill="#00BCD4" d="M33.874,378.469c-0.16,0.282-0.466,0.472-0.813,0.472l-7.531,0.001c-0.52-0.001-0.941-0.424-0.941-0.943
			c0-0.519,0.422-0.939,0.941-0.94h7.529c0.522,0.001,0.943,0.422,0.941,0.941C34.002,378.169,33.955,378.33,33.874,378.469z"/>
	</g>
	<g>
		<path fill="#00BCD4" stroke="#3F51B5" stroke-width="1.8823" stroke-linecap="round" stroke-miterlimit="10" d="M25.529,377.999"
			/>
	</g>
	<g>
		<path fill="#00BCD4" stroke="#3F51B5" stroke-width="1.8823" stroke-linecap="round" stroke-miterlimit="10" d="M10.474,377.999"
			/>
	</g>
	<g opacity="0.9">
		<path fill="#00BCD4" d="M11.292,378.469c-0.165,0.28-0.468,0.472-0.818,0.474h-7.53c-0.519-0.004-0.942-0.424-0.941-0.942
			c-0.003-0.521,0.423-0.942,0.939-0.941l7.532-0.002c0.521,0.002,0.942,0.423,0.941,0.942
			C11.417,378.17,11.369,378.329,11.292,378.469z"/>
	</g>
	<g opacity="0.27">
		<path fill="#00BCD4" d="M31.859,370.94c-0.081,0.139-0.199,0.26-0.347,0.344l-6.521,3.765c-0.45,0.261-1.026,0.106-1.285-0.344
			c-0.261-0.45-0.104-1.027,0.345-1.284l6.52-3.769c0.452-0.259,1.027-0.104,1.286,0.346
			C32.033,370.302,32.021,370.66,31.859,370.94z"/>
	</g>
	<g>
		<path fill="#00BCD4" stroke="#3F51B5" stroke-width="1.8823" stroke-linecap="round" stroke-miterlimit="10" d="M24.524,374.235"
			/>
	</g>
	<g>
		<path fill="#00BCD4" stroke="#3F51B5" stroke-width="1.8823" stroke-linecap="round" stroke-miterlimit="10" d="M11.483,381.762"
			/>
	</g>
	<g opacity="0.81">
		<path fill="#00BCD4" d="M12.298,382.234c-0.08,0.138-0.195,0.258-0.344,0.346l-6.521,3.764c-0.451,0.259-1.027,0.105-1.287-0.343
			c-0.262-0.451-0.106-1.025,0.344-1.288l6.523-3.766c0.449-0.259,1.024-0.104,1.285,0.346
			C12.472,381.593,12.459,381.951,12.298,382.234z"/>
	</g>
	<g>
		<path fill="#00BCD4" d="M14.706,408.293c-0.451,0.26-1.025,0.105-1.285-0.344l-3.765-6.521c-0.261-0.45-0.104-1.026,0.345-1.286
			c0.449-0.259,1.025-0.105,1.286,0.346l3.765,6.52C15.312,407.456,15.155,408.032,14.706,408.293z"/>
	</g>
	<g>
		<path fill="#00BCD4" stroke="#3F51B5" stroke-width="1.8823" stroke-linecap="round" stroke-miterlimit="10" d="M14.237,407.477"
			/>
	</g>
	<g>
		<path fill="#00BCD4" stroke="#3F51B5" stroke-width="1.8823" stroke-linecap="round" stroke-miterlimit="10" d="M21.767,420.521"
			/>
	</g>
	<g opacity="0.45">
		<path fill="#00BCD4" d="M26.003,427.857c-0.451,0.259-1.025,0.104-1.287-0.347l-3.765-6.521c-0.259-0.449-0.106-1.025,0.343-1.285
			c0.451-0.261,1.026-0.106,1.286,0.345l3.765,6.521C26.604,427.019,26.452,427.595,26.003,427.857z"/>
	</g>
	<g opacity="0.18">
		<path fill="#00BCD4" d="M31.515,407.285l-6.521,3.765c-0.45,0.259-1.025,0.104-1.287-0.346c-0.258-0.449-0.105-1.024,0.346-1.286
			l6.521-3.765c0.448-0.26,1.024-0.105,1.286,0.346C32.118,406.449,31.964,407.026,31.515,407.285z"/>
	</g>
	<g>
		<path fill="#00BCD4" stroke="#3F51B5" stroke-width="1.8823" stroke-linecap="round" stroke-miterlimit="10" d="M24.522,410.235"
			/>
	</g>
	<g>
		<path fill="#00BCD4" stroke="#3F51B5" stroke-width="1.8823" stroke-linecap="round" stroke-miterlimit="10" d="M11.479,417.765"
			/>
	</g>
	<g opacity="0.72">
		<path fill="#00BCD4" d="M11.951,418.579l-6.521,3.764c-0.451,0.262-1.026,0.106-1.287-0.344c-0.26-0.452-0.105-1.026,0.345-1.287
			l6.521-3.763c0.448-0.261,1.026-0.105,1.287,0.343C12.554,417.743,12.399,418.319,11.951,418.579z"/>
	</g>
	<g opacity="0.09">
		<path fill="#00BCD4" d="M22.237,408.294c-0.283,0.162-0.643,0.177-0.943,0.001c-0.449-0.26-0.605-0.836-0.345-1.287l3.769-6.521
			c0.256-0.448,0.834-0.604,1.283-0.347c0.45,0.263,0.605,0.836,0.348,1.286l-3.77,6.523
			C22.494,408.098,22.375,408.215,22.237,408.294z"/>
	</g>
	<g>
		<path fill="#00BCD4" stroke="#3F51B5" stroke-width="1.8823" stroke-linecap="round" stroke-miterlimit="10" d="M21.765,407.479"
			/>
	</g>
	<g>
		<path fill="#00BCD4" stroke="#3F51B5" stroke-width="1.8823" stroke-linecap="round" stroke-miterlimit="10" d="M14.237,420.518"
			/>
	</g>
	<g opacity="0.63">
		<path fill="#00BCD4" d="M10.944,427.856c-0.284,0.16-0.641,0.176-0.943,0.001c-0.449-0.261-0.604-0.839-0.344-1.288l3.766-6.521
			c0.26-0.452,0.836-0.605,1.289-0.346c0.448,0.261,0.602,0.835,0.344,1.286l-3.768,6.522
			C11.201,427.657,11.081,427.777,10.944,427.856z"/>
	</g>
	<g opacity="0">
		<path fill="#00BCD4" d="M18.472,407.287c-0.14,0.078-0.299,0.126-0.469,0.126c-0.521,0-0.943-0.423-0.943-0.942v-7.53
			c0.002-0.521,0.422-0.943,0.942-0.941c0.519-0.001,0.94,0.422,0.941,0.94v7.531C18.943,406.821,18.752,407.123,18.472,407.287z"/>
	</g>
	<g>
		<path fill="#00BCD4" stroke="#3F51B5" stroke-width="1.8823" stroke-linecap="round" stroke-miterlimit="10" d="M18.003,406.472"
			/>
	</g>
	<g>
		<path fill="#00BCD4" stroke="#3F51B5" stroke-width="1.8823" stroke-linecap="round" stroke-miterlimit="10" d="M18.001,421.527"
			/>
	</g>
	<g opacity="0.54">
		<path fill="#00BCD4" d="M18.47,429.873c-0.139,0.08-0.299,0.125-0.469,0.127c-0.52,0-0.939-0.423-0.941-0.941l0.002-7.533
			c0-0.518,0.418-0.939,0.941-0.94c0.52,0,0.938,0.422,0.94,0.941l0.001,7.531C18.943,429.406,18.752,429.709,18.47,429.873z"/>
	</g>
	<g opacity="0.36">
		<path fill="#00BCD4" d="M31.513,422.342c-0.281,0.164-0.639,0.175-0.939,0.001l-6.521-3.765c-0.449-0.261-0.604-0.837-0.345-1.288
			c0.261-0.448,0.836-0.603,1.286-0.344l6.521,3.766c0.451,0.262,0.605,0.837,0.345,1.286
			C31.772,422.147,31.652,422.263,31.513,422.342z"/>
	</g>
	<g>
		<path fill="#00BCD4" stroke="#3F51B5" stroke-width="1.8823" stroke-linecap="round" stroke-miterlimit="10" d="M24.521,417.763"
			/>
	</g>
	<g>
		<path fill="#00BCD4" stroke="#3F51B5" stroke-width="1.8823" stroke-linecap="round" stroke-miterlimit="10" d="M11.481,410.235"
			/>
	</g>
	<g opacity="0.9">
		<path fill="#00BCD4" d="M11.955,411.051c-0.282,0.161-0.64,0.174-0.944,0l-6.522-3.765c-0.447-0.264-0.604-0.838-0.345-1.287
			c0.258-0.451,0.838-0.605,1.285-0.346l6.525,3.766c0.45,0.262,0.604,0.837,0.344,1.286
			C12.214,410.854,12.093,410.969,11.955,411.051z"/>
	</g>
	<g opacity="0.27">
		<path fill="#00BCD4" d="M33.532,414.815c-0.141,0.078-0.303,0.125-0.473,0.124l-7.527,0.001c-0.521,0.001-0.941-0.422-0.941-0.94
			c0-0.521,0.422-0.942,0.94-0.94l7.528-0.004c0.521,0.003,0.941,0.426,0.941,0.942C34.002,414.349,33.812,414.653,33.532,414.815z"
			/>
	</g>
	<g>
		<path fill="#00BCD4" stroke="#3F51B5" stroke-width="1.8823" stroke-linecap="round" stroke-miterlimit="10" d="M25.532,414"/>
	</g>
	<g>
		<path fill="#00BCD4" stroke="#3F51B5" stroke-width="1.8823" stroke-linecap="round" stroke-miterlimit="10" d="M10.474,413.998"
			/>
	</g>
	<g opacity="0.81">
		<path fill="#00BCD4" d="M10.944,414.815c-0.139,0.078-0.299,0.125-0.471,0.127l-7.529-0.001c-0.521-0.002-0.943-0.423-0.944-0.94
			c0-0.521,0.421-0.941,0.942-0.943l7.533,0.001c0.518,0,0.938,0.422,0.938,0.941C11.416,414.347,11.226,414.651,10.944,414.815z"/>
	</g>
	<rect fill="#607D8B" fill-opacity="0" width="36" height="432"/>
</g>
</svg>
